:SAMPLES-PER-SECOND 30
:FULLY-SPECIFIED
:DEGREES
529
root  -37.0735 34.8335 5.50854 -170.785 37.2148 -179.695
RightUpLeg  -14.0268 -17.969 -0.350624
RightLeg  0.793379 -0.181635 0.00940171
RightFoot  15.6635 0.0602571 0.0985263
RightToes  -24.1254 -0.10563 -0.209136
Spine  -2.06144 0.0172237 -0.633918
Spine1  -4.08186 0.117409 -0.476339
HEad  -64.5575 -18.0483 11.5273
LeftShoulder1  -1.94126e-019 -3.10601e-018 -2.51263e-017
LeftArm  14.4275 31.614 -70.696
LeftForeArm  128.971 -73.0191 -141.623
LeftHand  0.10214 -0.0122815 -2.21319
RightShoulder  -4.96962e-017 0 -2.36833e-017
RightArm  18.7832 -23.2126 70.4313
RightForeArm  152.58 78.4466 129.157
RightHand  0.0815054 2.97023 0.907833
LeftUpLeg  -3.7686 0.686464 -4.85453
LeftLeg  1.41498 18.1723 -0.707497
LeftFoot  0.502665 -0.000731836 0.328463
LeftToes  -4.24674 1.49739e-006 1.00523e-007
530
root  -36.917 34.8391 5.48263 -170.686 36.8839 -179.603
RightUpLeg  -13.3986 -18.5663 -0.0980436
RightLeg  -0.0913739 0.137623 -0.00911149
RightFoot  15.7561 0.0486826 0.18306
RightToes  -23.9748 -0.104707 -0.207987
Spine  -2.08857 0.111416 -0.663658
Spine1  -4.13362 0.307649 -0.515902
HEad  -66.2599 -19.1668 12.1326
LeftShoulder1  -1.94126e-019 -3.10601e-018 -2.51263e-017
LeftArm  14.348 31.7048 -70.438
LeftForeArm  128.679 -73.0724 -141.447
LeftHand  0.124977 -0.105783 -2.65034
RightShoulder  -4.96962e-017 0 -2.36833e-017
RightArm  18.827 -23.157 70.4601
RightForeArm  152.118 78.5318 128.632
RightHand  0.0929959 3.10066 1.04123
LeftUpLeg  -3.60822 0.56086 -4.56563
LeftLeg  1.35356 17.9749 -0.719043
LeftFoot  0.512634 0.000985419 0.329664
LeftToes  -4.38019 1.49739e-006 1.00523e-007
531
root  -36.7781 34.8444 5.48173 -170.64 36.9273 -179.507
RightUpLeg  -13.1118 -18.9201 0.175418
RightLeg  -0.428092 0.556872 -0.0401718
RightFoot  15.7199 0.0384175 0.294802
RightToes  -23.673 -0.10253 -0.205022
Spine  -2.09791 0.25079 -0.697792
Spine1  -4.15212 0.585505 -0.579841
HEad  -67.869 -20.0518 12.7087
LeftShoulder1  -1.94126e-019 -3.10601e-018 -2.51263e-017
LeftArm  14.1305 31.8919 -70.2351
LeftForeArm  128.807 -73.0531 -141.515
LeftHand  0.132749 -0.136425 -2.7964
RightShoulder  -4.96962e-017 0 -2.36833e-017
RightArm  19.136 -22.7251 70.4963
RightForeArm  151.199 78.6881 127.627
RightHand  0.11611 3.05997 1.367
LeftUpLeg  -3.5262 0.415236 -4.31318
LeftLeg  1.49433 18.1683 -0.682578
LeftFoot  0.441137 0.00387241 0.308104
LeftToes  -4.57669 1.49739e-006 1.00523e-007
532
root  -36.6609 34.8503 5.48742 -170.616 37.2587 -179.417
RightUpLeg  -13.0302 -18.5688 0.352598
RightLeg  -0.401866 0.513542 -0.0368124
RightFoot  15.6094 0.0377918 0.281613
RightToes  -23.2507 -0.0997638 -0.201371
Spine  -2.10102 0.412456 -0.742757
Spine1  -4.15869 0.905744 -0.660505
HEad  -69.1773 -20.6525 13.2323
LeftShoulder1  -1.94126e-019 -3.10601e-018 -2.51263e-017
LeftArm  13.8503 32.232 -70.1377
LeftForeArm  128.942 -73.0165 -141.624
LeftHand  0.129453 -0.0453409 -2.71073
RightShoulder  -4.96962e-017 0 -2.36833e-017
RightArm  19.6288 -22.0896 70.5559
RightForeArm  150.623 78.8141 126.833
RightHand  0.143851 3.13869 1.7261
LeftUpLeg  -3.50671 0.483878 -4.11435
LeftLeg  1.77515 18.4046 -0.602419
LeftFoot  0.343798 0.00702127 0.277733
LeftToes  -5.08047 1.49739e-006 1.00523e-007
533
root  -36.559 34.8553 5.49872 -170.613 37.649 -179.327
RightUpLeg  -12.989 -17.8453 0.459757
RightLeg  -0.265725 0.13455 -0.0093737
RightFoot  15.4615 0.0441138 0.179975
RightToes  -22.726 -0.0970713 -0.19837
Spine  -2.08078 0.507513 -0.779354
Spine1  -4.11857 1.0923 -0.722776
HEad  -70.2483 -20.9089 13.6385
LeftShoulder1  -1.94126e-019 -3.10601e-018 -2.51263e-017
LeftArm  13.2864 32.68 -70.1543
LeftForeArm  128.684 -72.9697 -141.693
LeftHand  0.125945 0.13418 -2.82442
RightShoulder  -4.96962e-017 0 -2.36833e-017
RightArm  20.2996 -21.27 70.608
RightForeArm  150.424 78.8779 126.446
RightHand  0.148152 3.14441 1.78303
LeftUpLeg  -3.45317 0.493426 -3.93794
LeftLeg  2.01211 18.7482 -0.537066
LeftFoot  0.243396 0.00994879 0.245899
LeftToes  -5.20762 1.49739e-006 1.00523e-007
534
root  -36.4653 34.8577 5.50488 -170.623 37.9489 -179.237
RightUpLeg  -12.8726 -17.2568 0.547294
RightLeg  -0.210319 -0.148693 0.0100613
RightFoot  15.3188 0.0492037 0.104779
RightToes  -22.3794 -0.0951161 -0.196774
Spine  -2.07761 0.534965 -0.785755
Spine1  -4.11215 1.14066 -0.730619
HEad  -71.0109 -20.9929 14.0068
LeftShoulder1  -1.94126e-019 -3.10601e-018 -2.51263e-017
LeftArm  12.7659 33.2029 -70.3026
LeftForeArm  128.414 -73.0049 -141.568
LeftHand  0.123943 0.156147 -2.73401
RightShoulder  -4.96962e-017 0 -2.36833e-017
RightArm  20.9557 -20.5124 70.5725
RightForeArm  150.861 78.8874 126.513
RightHand  0.151369 3.30716 1.78047
LeftUpLeg  -3.31385 0.585971 -3.77481
LeftLeg  2.07258 18.9743 -0.523636
LeftFoot  0.177408 0.0119054 0.224091
LeftToes  -5.2989 1.49739e-006 1.00523e-007
535
root  -36.3782 34.8595 5.51244 -170.617 38.1179 -179.17
RightUpLeg  -12.7284 -17.152 0.681319
RightLeg  -0.304082 -0.0694098 0.00474716
RightFoot  15.2605 0.0481069 0.124854
RightToes  -22.4029 -0.0938512 -0.195856
Spine  -2.11017 0.505434 -0.788002
Spine1  -4.17712 1.07675 -0.729187
HEad  -71.5144 -20.8696 14.3592
LeftShoulder1  -1.94126e-019 -3.10601e-018 -2.51263e-017
LeftArm  12.2461 33.6595 -70.4575
LeftForeArm  128.047 -73.0192 -141.475
LeftHand  0.124164 0.329623 -2.85917
RightShoulder  -4.96962e-017 0 -2.36833e-017
RightArm  21.3826 -20.1294 70.5703
RightForeArm  151.282 78.819 126.977
RightHand  0.16584 3.30878 1.97312
LeftUpLeg  -3.14178 0.791696 -3.6151
LeftLeg  1.9661 18.9218 -0.556778
LeftFoot  0.233516 0.0109086 0.242961
LeftToes  -5.63397 1.49739e-006 1.00523e-007
536
root  -36.3038 34.86 5.53027 -170.605 38.2089 -179.137
RightUpLeg  -12.6126 -17.2971 0.834031
RightLeg  -0.453586 0.164299 -0.0120288
RightFoot  15.2016 0.0445241 0.185345
RightToes  -22.3225 -0.0927782 -0.194985
Spine  -2.15165 0.471363 -0.788489
Spine1  -4.25967 1.0068 -0.746237
HEad  -71.8541 -20.7404 14.7423
LeftShoulder1  -1.94126e-019 -3.10601e-018 -2.51263e-017
LeftArm  12.0031 33.8157 -70.566
LeftForeArm  127.612 -73.1043 -141.2
LeftHand  0.123878 0.266145 -2.78846
RightShoulder  -4.96962e-017 0 -2.36833e-017
RightArm  21.5197 -20.1151 70.6033
RightForeArm  151.596 78.7768 127.275
RightHand  0.170812 3.3507 2.02657
LeftUpLeg  -3.01029 0.942714 -3.48059
LeftLeg  1.8297 18.8544 -0.59897
LeftFoot  0.286751 0.00963309 0.260776
LeftToes  -5.77266 1.49739e-006 1.00523e-007
